<?xml version="1.0" standalone="no"?><!DOCTYPE svg PUBLIC "-//W3C//DTD SVG 1.1//EN" "http://www.w3.org/Graphics/SVG/1.1/DTD/svg11.dtd"><svg t="1586258278768" class="icon" viewBox="0 0 1024 1024" version="1.1" xmlns="http://www.w3.org/2000/svg" p-id="1009" xmlns:xlink="http://www.w3.org/1999/xlink" width="200" height="200"><defs><style type="text/css"></style></defs><path d="M557.4 233l0.5-0.1 0.1 0.2 5-1.1c12.1-2 23.5-0.1 31.5 4.6l1.1 0.8 1.4-0.7c2-0.7 4-1.3 6-1.6 8.2-1.4 17 0.5 24.4 5.9 13 9.5 17.4 26.9 11.5 41.2l-0.3 0.6-10.2 31.2c-2.3 7.2 1.8 14.3 8.2 16.4l2 0.3 4.5-1.2c9.5-2.4 17.9 7.1 14.8 16.6l-12 36.8c-3.1 9.6 5.3 19.1 15.2 16.6 9.5-2.4 17.9 7.1 14.8 16.6L654.3 482l-0.1 0.8c-2.3 9.8-10.6 18.8-22.1 23.3l-4.4 1.4-0.1-0.3-3.8 0.7c-12.3 1.6-23.8-2.3-30.6-9.8l-0.5-0.6-50.7-47.2c-7.3-6.9-4.5-19.3 5-21.7 9.8-2.5 12.7-14.9 5.3-21.8L524 380.4c-7.3-6.9-4.5-19.3 5-21.7l4.5-1.2 1.6-1.3c4.6-4.9 4.8-13.2-0.7-18.3l-23.9-22.4-0.6-0.4c-12.1-9.7-16.6-27-9.8-41.7 3.9-8.4 10.7-14.2 18.5-17 2-0.7 4-1.2 6.1-1.5l1.5-0.1 0.6-1.2c5.6-9.1 16.6-17 30.6-20.6z" fill="#379966" p-id="1010"></path><path d="M567.1 257.3c5.5-1.4 11.1 1.9 12.5 7.4l6.8 26.3 3.6-7.9c1.2-2.6 3.3-4.5 5.8-5.4 2.5-0.9 5.3-0.9 7.9 0.2 5.2 2.3 7.5 8.5 5.2 13.7L596 319.8l-1.7 2.3 12.2 47.6 3.6-7.9c1.2-2.6 3.3-4.5 5.8-5.4 2.5-0.9 5.3-0.9 7.9 0.2 5.2 2.3 7.5 8.5 5.2 13.7l-12.8 28.2-1.7 2.3 12.2 47.6 3.6-7.9c1.2-2.6 3.3-4.5 5.8-5.4 2.5-0.9 5.3-0.9 7.9 0.2 5.2 2.3 7.5 8.5 5.2 13.7l-12.8 28.2-1.7 2.3 3.9 15.3c1.4 5.5-1.9 11.1-7.4 12.5-5.5 1.4-11.1-1.9-12.5-7.4l-3.3-13-3.2-0.2c-1.3-0.3-2.6-0.9-3.7-1.8l-24.8-18.6c-4.6-3.4-5.5-9.9-2.1-14.5 1.7-2.3 4.2-3.7 6.8-4 2.6-0.4 5.4 0.3 7.7 2l12.1 9.1-13-50.8-3.2-0.2c-1.3-0.3-2.6-0.9-3.7-1.8l-24.8-18.6c-4.6-3.4-5.5-9.9-2.1-14.5 1.7-2.3 4.2-3.7 6.8-4 2.6-0.4 5.4 0.3 7.7 2l12.1 9.1-13-50.8-3.2-0.2c-1.3-0.3-2.6-0.9-3.7-1.8L543.4 309c-4.6-3.4-5.5-9.9-2.1-14.5 1.7-2.3 4.2-3.7 6.8-4 2.6-0.4 5.4 0.3 7.7 2l12.1 9.1-8.2-31.8c-1.4-5.5 1.9-11.1 7.4-12.5z" fill="#64BA8C" p-id="1011"></path><path d="M392.8 413.6c-0.8-4.6-5.6-17-2.8-27.1 2.8-10 13.7-28.9 19.4-33.2 5.7-4.3 15.8 1.4 14.8 7.3s-16.8 19.5-20.7 28.3c-3.9 8.8-1.4 20.1-2.9 24.3-1.5 4.2-4.7 1.1-6 1.1-1.4 0.2-1 4-1.8-0.7z" fill="#976C4F" p-id="1012"></path><path d="M285.7 519.5c-3-58 46.6-107.8 110.9-111.1 64.2-3.3 118.8 41 121.8 99s-46.6 107.8-110.9 111.1c-64.2 3.3-118.7-41-121.8-99z" fill="#FB6568" p-id="1013"></path><path d="M395.4 409l11.5-0.1-3.8 0.4c-58.4 8.4-101.8 55.6-99 110 2.8 54.4 50.9 96.8 109.9 99.1h0.5l-8 0.8c-64.2 3.3-118.8-41-121.8-99-3.2-58.1 46.4-107.8 110.7-111.2z" fill="#F9272C" p-id="1014"></path><path d="M395.6 405.4h0.9l0.9-0.1v0.1l9.2 0.1c11 0.3 22.4 1.3 35 5.4 16.8 5.4 50.6 21.8 55 27.2 4.4 5.4-16.3 4-28.8 5.2-7.9 0.7-19.3 2.2-29.7 2.7l-5 0.1-30.7-32-25.9 33.4-0.4 0.2c-12 3.6-33.9 2.8-46.5 2.9-12.6 0.1-33 3.6-29.2-2.2 3.8-5.8 35.7-25.6 51.9-32.7 12.1-5.4 23.3-7.6 34.3-9l9.1-1-0.1-0.3z" fill="#7CD0A4" p-id="1015"></path><path d="M396.1 405.7c-16.9 9.9-24.9 12.5-40.9 25.1-15.9 12.7-20 27.4-19.5 32.4s12.9 1.9 22.3-2.4 25.3-11.9 34.1-23.5 4.5-21.3 5.7-31.7" fill="#4DBF83" p-id="1016"></path><path d="M398.1 405.6c17.8 8.1 26.1 9.8 43.2 20.8 17.1 10.9 22.7 25.1 22.8 30.2 0.1 5-12.6 3.3-22.4 0-9.8-3.3-26.4-9.2-36.4-19.8-10-10.6-6.7-20.7-8.9-31" fill="#4DBF83" p-id="1017"></path><path d="M584.9 424.4l43 155.6c3.9 14-3.3 28.8-16.7 34.6l-6.1 2.6c-13.4 5.8-28.9 0.7-36.3-11.8l-81.9-138.9c-11.2-23.9-5.7-69.9 10.5-76.9 20.5-10.7 6.7-3.7 23.9-11.4 16.9-6.3 56.7 25.9 63.6 46.2" fill="#FC7968" p-id="1018"></path><path d="M603.2 577.6c0.4-0.4 0.9-0.7 1.4-0.9l16.7-6.1c2.2-0.8 4.7 0.3 5.6 2.6 0.9 2.2-0.2 4.7-2.4 5.5l-16.7 6.1c-2.2 0.8-4.7-0.3-5.6-2.6-0.6-1.7-0.2-3.5 1-4.6z m-42.9 9.3l7.3-2.7c2.2-0.8 4.7 0.3 5.6 2.6 0.9 2.2-0.2 4.7-2.4 5.5l-5.9 2.2-4.6-7.6z m-6-39.6c0.4-0.4 0.9-0.7 1.4-0.9l16.7-6.1c2.2-0.8 4.7 0.3 5.6 2.6 0.9 2.2-0.2 4.7-2.4 5.5l-16.7 6.1c-2.2 0.8-4.7-0.3-5.6-2.6-0.7-1.7-0.2-3.5 1-4.6z m29.6-47c0.2-0.4 0.5-0.7 0.8-1 0.4-0.4 0.9-0.7 1.4-0.9l16.7-6.1 0.8-0.1 2.4 8.2-16.7 6.1c-2.2 0.8-4.7-0.3-5.6-2.6-0.5-1.2-0.4-2.5 0.2-3.6z m-45.4 7.7c0.2-0.4 0.5-0.7 0.8-1 0.4-0.4 0.9-0.7 1.4-0.9l16.7-6.1c2.2-0.8 4.7 0.3 5.6 2.6 0.9 2.2-0.2 4.7-2.4 5.5l-16.7 6.1c-2.2 0.8-4.7-0.3-5.6-2.6-0.5-1.2-0.4-2.6 0.2-3.6z m6.6-41.1c0.2-0.4 0.5-0.7 0.8-1 0.4-0.4 0.9-0.7 1.4-0.9l16.7-6.1c2.2-0.8 4.7 0.3 5.6 2.6 0.9 2.2-0.2 4.7-2.4 5.5l-16.7 6.1c-2.2 0.8-4.7-0.3-5.6-2.6-0.5-1.2-0.4-2.6 0.2-3.6z m-43.9 22.4l7.7-2.8c2.2-0.8 4.7 0.3 5.6 2.6 0.9 2.2-0.2 4.7-2.4 5.5l-6.3 2.3-4.6-7.6z m-6.8-39.8c0.2-0.4 0.5-0.7 0.8-1 0.4-0.4 0.9-0.7 1.4-0.9l16.7-6.1c2.2-0.8 4.7 0.3 5.6 2.6 0.9 2.2-0.2 4.7-2.4 5.5l-16.7 6.1c-2.2 0.8-4.7-0.3-5.6-2.6-0.6-1.2-0.4-2.5 0.2-3.6z" fill="#A11603" p-id="1019"></path><path d="M429.4 302.6l0.2-0.1 0.1 0.1 1.6-1.3c4-3.1 8.4-4.6 12.1-4.5h0.5l0.4-0.5c0.6-0.6 1.2-1.2 1.9-1.7 2.7-2.1 6.2-3.1 9.8-2.7 6.4 0.8 11.1 6 11.6 12.2v0.3l2 12.9c0.5 3 3.3 4.7 5.9 4.1l0.8-0.3 1.4-1.3c3-2.7 7.7-1 8.3 2.9l2.3 15.2c0.6 4 5.4 5.6 8.5 2.8 3-2.7 7.7-1 8.3 2.9l4.2 27.3 0.1 0.3c0.9 3.9-0.4 8.6-3.7 12.5l-1.3 1.4-0.1-0.1-1.2 1c-4.1 2.9-9 3.8-12.8 2.5l-0.3-0.1-26.8-6.7c-3.9-1-5.1-5.9-2.2-8.6 3.1-2.8 1.8-7.7-2-8.7l-14.9-3.8c-3.9-1-5.1-5.9-2.2-8.6l1.4-1.3 0.3-0.7c0.8-2.6-0.7-5.6-3.6-6.3l-12.6-3.2h-0.3c-6.1-1-10.8-6.3-11.1-12.7-0.1-3.7 1.3-7.1 3.6-9.6 0.6-0.6 1.2-1.2 1.9-1.7l0.5-0.3v-0.5c0.5-4.2 3-9.2 7.4-13.1z" fill="#7CD0A4" p-id="1020"></path><path d="M486 274.8l-0.2 0.1v0.1l-2 0.5c-4.8 1.5-8.6 4.2-10.7 7.3l-0.3 0.5h-0.6c-0.9 0.1-1.7 0.3-2.5 0.5-3.3 1-6.1 3.3-7.9 6.5-3 5.7-1.5 12.6 3.3 16.5l0.2 0.2 9.4 9.1c2.2 2.1 1.9 5.3 0 7.2l-0.7 0.5-1.9 0.4c-3.9 0.9-5.3 5.7-2.4 8.5l11.1 10.7c2.9 2.8 1.5 7.7-2.6 8.5-3.9 0.9-5.3 5.7-2.4 8.5l19.9 19.2 0.2 0.2c2.6 3 7.3 4.7 12.3 4.2l1.9-0.3v-0.1l1.5-0.4c4.8-1.7 8.3-5.1 9.4-9l0.1-0.3 10-25.8c1.4-3.7-1.9-7.6-5.8-6.7-4.1 0.9-7.4-2.9-5.9-6.7l5.6-14.4c1.4-3.7-1.9-7.6-5.8-6.7l-1.9 0.4-0.8-0.2c-2.6-0.9-4.2-3.7-3.1-6.5l4.7-12.2 0.1-0.3c2.7-5.6 1.2-12.5-4-16.4-2.9-2.2-6.5-3.1-9.9-2.6-0.8 0.1-1.7 0.3-2.5 0.6l-0.6 0.3-0.5-0.3c-3.5-2.1-9-2.9-14.7-1.6z" fill="#7CD0A4" p-id="1021"></path><path d="M457.5 284.3l0.2-0.1v0.1l1.9-0.9c4.6-1.9 9.4-2.2 13-1l0.5 0.2 0.5-0.4c0.7-0.5 1.5-0.9 2.3-1.2 3.2-1.3 6.8-1.4 10.3 0.1 6.1 2.6 9.4 9.1 8.4 15.4l-0.1 0.3-1.2 13.4c-0.3 3.1 2 5.5 4.8 5.8h0.8l1.7-0.9c3.6-1.8 7.8 1.2 7.4 5.3l-1.4 15.8c-0.4 4.1 3.9 7.1 7.6 5.2 3.6-1.8 7.8 1.2 7.4 5.3L519 375v0.3c0 4.1-2.5 8.5-6.7 11.3l-1.6 1-0.1-0.1-1.5 0.6c-4.8 1.8-9.7 1.3-13.1-1.1l-0.3-0.2-24.6-14.2c-3.6-2.1-3.6-7.3 0-9.1 3.7-1.9 3.7-7.1 0.1-9.2l-13.7-7.9c-3.6-2.1-3.6-7.3 0-9.1l1.7-0.9 0.5-0.6c1.4-2.4 0.7-5.7-2-7.2l-11.6-6.7-0.3-0.1c-5.7-2.8-9.1-9.3-7.7-15.7 0.8-3.7 2.9-6.7 5.8-8.5 0.7-0.5 1.5-0.8 2.3-1.1l0.6-0.2 0.1-0.5c1.6-4.6 5.3-8.8 10.6-11.5z" fill="#379966" p-id="1022"></path><path d="M512 229c141.9 0 257 115.2 257 257.2V529h-34.2v-37.5c0-123.2-99.8-223-222.8-223s-222.8 99.9-222.8 223V529H255v-42.8c0-142 115.1-257.2 257-257.2z" fill="#634633" p-id="1023"></path><path d="M133 909.5c0-24.6 169.7-44.5 379-44.5s379 19.9 379 44.5S721.3 954 512 954s-379-19.9-379-44.5z" fill="#EDEDEE" p-id="1024"></path><path d="M249 589l39.6 274.1c1.9 13.1 13.1 22.9 26.4 22.9h395c13.3 0 24.5-9.7 26.4-22.9L776 589H249z" fill="#825C42" p-id="1025"></path><path d="M213 565.5c0-21.3 17.2-38.5 38.5-38.5h522c21.3 0 38.5 17.2 38.5 38.5S794.8 604 773.5 604h-522c-21.3 0-38.5-17.2-38.5-38.5z" fill="#976C4F" p-id="1026"></path><path d="M739.6 824.5l-3.4 23.5-2.4-1.1c-2-1.3-3.5-3.2-4.5-5.4l-1-4.8 1-4.8c1.4-3.3 4.2-5.9 7.7-7l2.6-0.4z m-99.2-0.2h49.4c6.8 0 12.4 5.5 12.4 12.3 0 6.8-5.5 12.3-12.4 12.3h-49.4c-5.1 0-9.5-3.1-11.4-7.5l-1-4.8 1-4.8c1.9-4.4 6.3-7.5 11.4-7.5z m-100.2 0h49.4c6.8 0 12.4 5.5 12.4 12.3 0 6.8-5.5 12.3-12.4 12.3h-49.4c-5.1 0-9.5-3.1-11.4-7.5l-1-4.8 1-4.8c1.9-4.4 6.3-7.5 11.4-7.5z m-100.3 0h49.4c6.8 0 12.4 5.5 12.4 12.3 0 6.8-5.5 12.3-12.4 12.3h-49.4c-5.1 0-9.5-3.1-11.4-7.5l-1-4.8 1-4.8c1.9-4.4 6.3-7.5 11.4-7.5z m-100.3 0H389c6.8 0 12.4 5.5 12.4 12.3 0 6.8-5.5 12.3-12.4 12.3h-49.4c-5.1 0-9.5-3.1-11.4-7.5l-1-4.8 1-4.8c1.9-4.4 6.3-7.5 11.4-7.5z m-55.2 0h4.4c6.8 0 12.4 5.5 12.4 12.3 0 6.8-5.5 12.3-12.4 12.3h-0.8l-3.6-24.6z m456.3-50.8h6.2l-3.6 24.7h-2.7c-5.1 0-9.5-3.1-11.4-7.5l-1-4.8 1-4.8c2-4.5 6.4-7.6 11.5-7.6z m-100.3 0h49.4c6.8 0 12.4 5.5 12.4 12.3 0 6.8-5.5 12.3-12.4 12.3h-49.4c-5.1 0-9.5-3.1-11.4-7.5l-1-4.8 1-4.8c1.9-4.4 6.3-7.5 11.4-7.5z m-100.2 0h49.4c6.8 0 12.4 5.5 12.4 12.3 0 6.8-5.5 12.3-12.4 12.3h-49.4c-5.1 0-9.5-3.1-11.4-7.5l-1-4.8 1-4.8c1.9-4.4 6.3-7.5 11.4-7.5z m-100.3 0h49.4c6.8 0 12.4 5.5 12.4 12.3 0 6.8-5.5 12.3-12.4 12.3h-49.4c-5.1 0-9.5-3.1-11.4-7.5l-1-4.8 1-4.8c1.9-4.4 6.3-7.5 11.4-7.5z m-100.3 0H389c6.8 0 12.4 5.5 12.4 12.3 0 6.8-5.5 12.3-12.4 12.3h-49.4c-5.1 0-9.5-3.1-11.4-7.5l-1-4.8 1-4.8c1.9-4.4 6.3-7.5 11.4-7.5z m-62.5 0h11.7c6.8 0 12.4 5.5 12.4 12.3 0 6.8-5.5 12.3-12.4 12.3h-8.2l-3.5-24.6z m463.6-50.8h13.6l-3.6 24.7h-10c-5.1 0-9.5-3.1-11.4-7.5l-1-4.8 1-4.8c1.9-4.5 6.3-7.6 11.4-7.6z m-100.3 0h49.4c6.8 0 12.4 5.5 12.4 12.3 0 6.8-5.5 12.3-12.4 12.3h-49.4c-5.1 0-9.5-3.1-11.4-7.5l-1-4.8 1-4.8c1.9-4.4 6.3-7.5 11.4-7.5z m-100.2 0h49.4c6.8 0 12.4 5.5 12.4 12.3 0 6.8-5.5 12.3-12.4 12.3h-49.4c-5.1 0-9.5-3.1-11.4-7.5l-1-4.8 1-4.8c1.9-4.4 6.3-7.5 11.4-7.5z m-100.3 0h49.4c6.8 0 12.4 5.5 12.4 12.3 0 6.8-5.5 12.3-12.4 12.3h-49.4c-5.1 0-9.5-3.1-11.4-7.5l-1-4.8 1-4.8c1.9-4.4 6.3-7.5 11.4-7.5z m-100.3 0H389c6.8 0 12.4 5.5 12.4 12.3 0 6.8-5.5 12.3-12.4 12.3h-49.4c-5.1 0-9.5-3.1-11.4-7.5l-1-4.8 1-4.8c1.9-4.4 6.3-7.5 11.4-7.5z m-69.9 0h19.1c6.8 0 12.4 5.5 12.4 12.3 0 6.8-5.5 12.3-12.4 12.3h-15.5l-3.6-24.6z m471-50.9h20.9l-3.6 24.7h-17.4c-5.1 0-9.5-3.1-11.4-7.5l-1-4.8 1-4.8c2-4.5 6.4-7.6 11.5-7.6z m-100.3 0h49.4c6.8 0 12.4 5.5 12.4 12.3 0 6.8-5.5 12.3-12.4 12.3h-49.4c-5.1 0-9.5-3.1-11.4-7.5l-1-4.8 1-4.8c1.9-4.4 6.3-7.5 11.4-7.5z m-100.2 0h49.4c6.8 0 12.4 5.5 12.4 12.3 0 6.8-5.5 12.3-12.4 12.3h-49.4c-5.1 0-9.5-3.1-11.4-7.5l-1-4.8 1-4.8c1.9-4.4 6.3-7.5 11.4-7.5z m-100.3 0h49.4c6.8 0 12.4 5.5 12.4 12.3 0 6.8-5.5 12.3-12.4 12.3h-49.4c-5.1 0-9.5-3.1-11.4-7.5l-1-4.8 1-4.8c1.9-4.4 6.3-7.5 11.4-7.5z m-100.3 0H389c6.8 0 12.4 5.5 12.4 12.3 0 6.8-5.5 12.3-12.4 12.3h-49.4c-5.1 0-9.5-3.1-11.4-7.5l-1-4.8 1-4.8c1.9-4.4 6.3-7.5 11.4-7.5z m-77.2 0h26.4c6.8 0 12.4 5.5 12.4 12.3 0 6.8-5.5 12.3-12.4 12.3h-22.9l-3.5-24.6zM740.7 621H769l-3.6 24.7h-24.7c-5.1 0-9.5-3.1-11.4-7.5l-1-4.8 1-4.8c1.9-4.5 6.3-7.6 11.4-7.6z m-100.3 0h49.4c6.8 0 12.4 5.5 12.4 12.3 0 6.8-5.5 12.3-12.4 12.3h-49.4c-5.1 0-9.5-3.1-11.4-7.5l-1-4.8 1-4.8c1.9-4.4 6.3-7.5 11.4-7.5z m-100.2 0h49.4c6.8 0 12.4 5.5 12.4 12.3 0 6.8-5.5 12.3-12.4 12.3h-49.4c-5.1 0-9.5-3.1-11.4-7.5l-1-4.8 1-4.8c1.9-4.4 6.3-7.5 11.4-7.5z m-100.3 0h49.4c6.8 0 12.4 5.5 12.4 12.3 0 6.8-5.5 12.3-12.4 12.3h-49.4c-5.1 0-9.5-3.1-11.4-7.5l-1-4.8 1-4.8c1.9-4.4 6.3-7.5 11.4-7.5z m-100.3 0H389c6.8 0 12.4 5.5 12.4 12.3 0 6.8-5.5 12.3-12.4 12.3h-49.4c-5.1 0-9.5-3.1-11.4-7.5l-1-4.8 1-4.8c1.9-4.4 6.3-7.5 11.4-7.5z m-84.6 0h33.8c6.8 0 12.4 5.5 12.4 12.3 0 6.8-5.5 12.3-12.4 12.3h-30.2L255 621z" fill="#634633" p-id="1027"></path><path d="M252 527l159.7 139.9c7 6.1 16.6 6.1 23.6 0L595 527H252z" fill="#FC7968" p-id="1028"></path><path d="M741.9 374.1c2.6 0.2 4.9 0.8 6.8 1.9 21 10.3 7 3.3 23.6 12.7 15.3 9.9 13 61.7 0.6 79.4L725.7 528H631l48.9-114.5c11.1-20.5 43.8-40.7 62-39.4z" fill="#FB6568" p-id="1029"></path><path d="M660.1 508.9c0.6 0.1 1.1 0.3 1.6 0.6l15 9.6c2 1.3 2.6 3.9 1.3 5.9-1.3 2-4 2.6-6 1.3l-15-9.6c-2-1.3-2.6-3.9-1.3-5.9 1-1.5 2.7-2.2 4.4-1.9z m56.1-3.9h1.2c0.6 0.1 1.1 0.3 1.6 0.6l15 9.6 0.6 0.6-5.2 6.6-15-9.6c-2-1.3-2.6-3.9-1.3-5.9 0.7-1.1 1.9-1.7 3.1-1.9z m-33.5-31.3h1.2c0.6 0.1 1.1 0.3 1.6 0.6l15 9.6c2 1.3 2.6 3.9 1.3 5.9-1.3 2-4 2.6-6 1.3l-15-9.6c-2-1.3-2.6-3.9-1.3-5.9 0.8-1.1 2-1.8 3.2-1.9z m37.5-18.7h1.2c0.6 0.1 1.1 0.3 1.6 0.6l15 9.6c2 1.3 2.6 3.9 1.3 5.9-1.3 2-4 2.6-6 1.3l-15-9.6c-2-1.3-2.6-3.9-1.3-5.9 0.8-1.1 2-1.7 3.2-1.9z m-44.7-21.5l6.9 4.5c2 1.3 2.6 3.9 1.3 5.9-1.3 2-4 2.6-6 1.3l-5.7-3.7 3.5-8z m28.4-28.5h1.2c0.6 0.1 1.1 0.3 1.6 0.6l15 9.6c2 1.3 2.6 3.9 1.3 5.9-1.3 2-4 2.6-6 1.3l-15-9.6c-2-1.3-2.6-3.9-1.3-5.9 0.8-1.1 2-1.7 3.2-1.9z" fill="#F91F24" p-id="1030"></path><path d="M779.3 267.9l0.2 0.1v0.1l2.1 0.5c4.9 1.4 8.8 4.1 11 7.2l0.3 0.5h0.6c0.9 0.1 1.7 0.2 2.5 0.5 3.3 1 6.3 3.2 8.1 6.4 3.2 5.7 1.8 12.7-3 16.8l-0.2 0.2-9.3 9.4c-2.1 2.2-1.8 5.5 0.2 7.3l0.7 0.5 1.9 0.4c4 0.8 5.5 5.7 2.6 8.6l-11 11c-2.9 2.9-1.4 7.8 2.8 8.6 4 0.8 5.5 5.7 2.6 8.6l-19.8 19.8-0.2 0.3c-2.6 3.1-7.3 4.9-12.4 4.4l-1.9-0.3v-0.1l-1.6-0.4c-4.9-1.6-8.5-5-9.7-8.9l-0.1-0.3-10.6-26.1c-1.5-3.8 1.7-7.7 5.7-6.9 4.1 0.8 7.4-3.1 5.9-6.9l-5.9-14.4c-1.5-3.8 1.7-7.7 5.7-6.9l1.9 0.4 0.8-0.2c2.6-0.9 4.1-3.9 3-6.7l-5-12.2-0.1-0.3c-2.8-5.6-1.4-12.6 3.7-16.6 2.9-2.3 6.5-3.2 9.9-2.8 0.9 0.1 1.7 0.3 2.5 0.5l0.6 0.3 0.5-0.3c3.6-2.4 9.1-3.3 15-2.1z" fill="#7CD0A4" p-id="1031"></path><path d="M835.9 297.4l-0.2-0.1-0.1 0.1-1.6-1.4c-4.1-3-8.6-4.5-12.4-4.3l-0.6 0.1-0.4-0.5c-0.6-0.6-1.2-1.2-1.9-1.7-2.8-2.1-6.3-3.1-10-2.5-6.5 1-11.2 6.3-11.5 12.6v0.3l-1.8 13.1c-0.4 3-3.2 4.8-5.9 4.3l-0.8-0.3-1.5-1.3c-3.1-2.7-7.9-0.9-8.4 3.1l-2.1 15.5c-0.5 4-5.3 5.8-8.5 3-3-2.7-7.8-0.9-8.4 3.1l-3.7 27.7-0.1 0.3c-0.9 4 0.6 8.7 4 12.5l1.4 1.3 0.1-0.1 1.3 1c4.2 2.9 9.1 3.7 13 2.3l0.3-0.1 27-7.3c3.9-1.1 5.1-6.1 2-8.7-3.2-2.8-2-7.8 1.9-8.8l15.1-4.1c3.9-1.1 5.1-6.1 2-8.7l-1.5-1.3-0.4-0.8c-0.8-2.6 0.6-5.6 3.5-6.4l12.7-3.5h0.3c6.2-1.2 10.9-6.5 11-13.1 0.1-3.7-1.4-7.1-3.8-9.6-0.6-0.6-1.3-1.2-2-1.7l-0.6-0.3v-0.6c-0.2-4.2-2.9-9.2-7.4-13.1z" fill="#7CD0A4" p-id="1032"></path><path d="M811 279.8l0.2 0.1v0.1l1.9 1c4.3 2.6 7.4 6.3 8.6 10l0.2 0.5 0.6 0.2c0.8 0.3 1.6 0.7 2.3 1.1 3 1.8 5.2 4.8 6.1 8.5 1.5 6.5-1.8 13.2-7.5 16.1l-0.3 0.1-11.6 7c-2.7 1.6-3.3 5-1.8 7.4l0.5 0.6 1.7 0.9c3.6 1.8 3.7 7.1 0.2 9.2l-13.7 8.3c-3.6 2.2-3.5 7.4 0.3 9.3 3.6 1.8 3.7 7.1 0.2 9.2l-24.6 14.9-0.3 0.2c-3.4 2.5-8.4 3-13.2 1.3l-1.8-0.7 0.1-0.1-1.4-0.8c-4.3-2.8-6.9-7.2-7-11.3v-0.3l-3.1-28.6c-0.5-4.1 3.8-7.3 7.4-5.5 3.8 1.9 8-1.3 7.6-5.4l-1.7-15.9c-0.5-4.1 3.8-7.3 7.4-5.5l1.7 0.9h0.8c2.8-0.3 5.1-2.8 4.7-5.9l-1.5-13.5-0.1-0.3c-1.2-6.3 2.1-13 8.2-15.7 3.5-1.6 7.2-1.6 10.4-0.3 0.8 0.3 1.6 0.7 2.3 1.2l0.5 0.4 0.5-0.2c4.2-1.6 9.9-1.1 15.2 1.5z" fill="#379966" p-id="1033"></path><path d="M678.5 253l0.5 0.1-0.1 0.2 4.9 1.4c11.6 3.9 20.8 10.9 25.6 18.9l0.6 1.2h1.5c2.1 0.3 4.1 0.7 6.1 1.4 7.9 2.7 14.8 8.5 18.7 16.8 6.9 14.5 2.7 31.9-9.3 41.8l-0.6 0.4-23.6 22.8c-5.5 5.2-5.1 13.5-0.5 18.3l1.6 1.2 4.5 1.1c9.5 2.3 12.5 14.7 5.2 21.7l-28 26.7c-7.3 6.9-4.3 19.3 5.6 21.8 9.5 2.3 12.5 14.7 5.2 21.7l-50.2 47.9-0.5 0.6c-6.7 7.6-18.2 11.6-30.5 10.1l-4.5-0.8 0.1-0.3-3.7-1.1c-11.6-4.4-19.9-13.2-22.4-23l-0.1-0.8-22.3-65.7c-3.2-9.5 5.1-19.1 14.6-16.8 9.9 2.4 18.2-7.2 15-16.7l-12.4-36.6c-3.2-9.5 5.1-19.1 14.6-16.8l4.5 1.1 2-0.4c6.4-2.1 10.5-9.3 8-16.5l-10.5-31-0.3-0.6c-6.1-14.3-1.8-31.7 11-41.3 7.4-5.5 16.1-7.5 24.3-6.2 2.1 0.3 4.1 0.8 6 1.6l1.4 0.7 1.1-0.8c9.3-5.7 22.9-7.5 36.9-4.1z" fill="#64BA8C" p-id="1034"></path><path d="M675.5 279c5.5 1.3 8.9 6.9 7.5 12.4l-6.5 26.4 6.9-5.3c2.3-1.7 5-2.4 7.6-2.1 2.6 0.3 5.1 1.7 6.8 3.9 3.5 4.5 2.6 11-1.9 14.5l-24.6 18.9-2.6 1.3-11.7 47.8 6.9-5.3c2.3-1.7 5-2.4 7.6-2.1 2.6 0.3 5.1 1.7 6.8 3.9 3.5 4.5 2.6 11-1.9 14.5l-24.6 18.9-2.6 1.3-11.7 47.8 6.9-5.3c2.3-1.7 5-2.4 7.6-2.1 2.6 0.3 5.1 1.7 6.8 3.9 3.5 4.5 2.6 11-1.9 14.5l-24.6 18.9-2.6 1.3-3.8 15.4c-1.3 5.5-6.9 8.9-12.4 7.5-5.5-1.3-8.9-6.9-7.5-12.4l3.2-13-2.7-1.6c-1-0.9-1.8-2-2.4-3.3L591 471.5c-2.4-5.2-0.2-11.3 5-13.7 2.6-1.2 5.4-1.2 7.9-0.3 2.5 0.9 4.6 2.8 5.8 5.3l6.4 13.7 12.5-50.9-2.7-1.6c-1-0.9-1.8-2-2.4-3.3l-13.1-28.1c-2.4-5.2-0.2-11.3 5-13.7 2.6-1.2 5.4-1.2 7.9-0.3 2.5 0.9 4.6 2.8 5.8 5.3l6.4 13.7 12.5-50.9-2.7-1.6c-1-0.9-1.8-2-2.4-3.3l-13.1-28.1c-2.4-5.2-0.2-11.3 5-13.7 2.6-1.2 5.4-1.2 7.9-0.3 2.5 0.9 4.6 2.8 5.8 5.3l6.4 13.7 7.8-31.9c1.8-5.8 7.3-9.1 12.8-7.8z" fill="#7CD0A4" p-id="1035"></path></svg>